<svg width="225" height="225" viewBox="0 0 225 225" fill="none" xmlns="http://www.w3.org/2000/svg">
<path d="M225 112.5C225 174.632 174.632 225 112.5 225C50.368 225 0 174.632 0 112.5C0 50.368 50.368 0 112.5 0C174.632 0 225 50.368 225 112.5Z" fill="#5D5CD6"/>
<path d="M68.5358 171.945H177.484C181.194 171.945 184.2 175.628 184.2 180.172C184.2 184.715 181.194 188.398 177.484 188.398H50.0664C43.0977 188.398 39.4202 178.291 44.0811 171.945L121.547 66.4186C123.83 63.3107 127.651 62.7918 130.432 65.2139C133.705 68.0623 134.22 73.7664 131.537 77.4222L66.4185 166.126C64.7712 168.37 66.072 171.945 68.5358 171.945Z" fill="#0DBA67"/>
<path d="M157.57 54.4556H53.7165C50.0081 54.4556 47 50.7726 47 46.2278C47 41.683 50.0081 38 53.7165 38H176.041C183.008 38 186.685 48.1092 182.025 54.4556L104.558 159.98C102.276 163.089 98.4549 163.607 95.6736 161.184C92.4007 158.338 91.8854 152.632 94.5687 148.978L159.687 60.274C161.334 58.0297 160.034 54.4556 157.57 54.4556Z" fill="#FFB800"/>
</svg>
