<?xml version="1.0" encoding="iso-8859-1"?>
<!-- Generator: Adobe Illustrator 19.0.0, SVG Export Plug-In . SVG Version: 6.00 Build 0)  -->
<svg version="1.1" id="Layer_1"
	xmlns="http://www.w3.org/2000/svg"
	xmlns:xlink="http://www.w3.org/1999/xlink" x="0px" y="0px" viewBox="0 0 512.002 512.002" style="enable-background:new 0 0 512.002 512.002;" xml:space="preserve">
	<polygon style="fill:#0DBA67;" points="174.475,131.664 211.409,131.664 211.409,16.977 15.593,16.977 15.593,380.336 
		174.475,380.336 	"/>
	<polygon style="fill:#0DBA67;" points="373.389,131.664 370.291,131.664 370.291,246.349 494.324,246.349 	"/>
	<path style="fill:#000000;" d="M496.407,309.978c-8.61,0-15.593,6.981-15.593,15.593v153.857H190.068v-99.092V147.257h21.342
	h124.033H354.7v99.092c0,8.612,6.982,15.593,15.593,15.593h124.034c6.382,0,12.119-3.889,14.484-9.817
	c2.364-5.928,0.876-12.699-3.755-17.09L384.121,120.35c-0.128-0.122-0.267-0.226-0.398-0.343c-0.192-0.17-0.384-0.341-0.583-0.504
	c-0.186-0.148-0.376-0.285-0.568-0.424c-0.214-0.156-0.426-0.313-0.649-0.458c-0.184-0.12-0.374-0.229-0.563-0.341
	c-0.242-0.145-0.482-0.288-0.733-0.421c-0.178-0.094-0.36-0.175-0.541-0.26c-0.271-0.129-0.541-0.259-0.82-0.373
	c-0.173-0.07-0.351-0.128-0.525-0.193c-0.293-0.108-0.583-0.215-0.883-0.304c-0.187-0.056-0.377-0.097-0.568-0.147
	c-0.293-0.075-0.583-0.154-0.881-0.214c-0.245-0.048-0.493-0.076-0.741-0.114c-0.249-0.036-0.494-0.083-0.747-0.108
	c-0.507-0.05-1.018-0.078-1.531-0.078h-3.098h-28.631L225.236,5.665c-2.896-2.747-6.736-4.279-10.729-4.279h-3.098l0,0l0,0H15.593
	C6.982,1.386,0,8.367,0,16.979v363.359c0,8.612,6.982,15.593,15.593,15.593h143.29v99.092c0,8.612,6.982,15.593,15.593,15.593
	h321.933c8.61,0,15.593-6.981,15.593-15.593V325.571C512,316.959,505.019,309.978,496.407,309.978z M385.884,230.756v-65.755
	l69.34,65.755H385.884z M227.001,50.316l69.338,65.755h-69.338V50.316z M31.186,364.743V32.572h164.629l0.002,83.499h-21.342
	c-8.61,0-15.593,6.981-15.593,15.593v233.079H31.186z"/>

</svg>
